<svg viewBox="0 0 307.964 34.0772" fill="none" xmlns="http://www.w3.org/2000/svg">
<g id="Group 1642">
<path id="Vector" d="M88.9893 7.90165L85.6011 7.90165L85.6011 16.2311L88.9893 16.2311L88.9893 7.90165Z" fill="var(--fill-0, white)"/>
<path id="Vector_2" d="M92.5407 7.12738L88.1457 7.12738L88.1457 12.7611L92.5407 12.7611L92.5407 7.12738Z" fill="var(--fill-0, white)"/>
<path id="Vector_3" d="M88.1458 4.48034L84.75 4.48034L84.75 9.51677L88.1458 9.51677L88.1458 4.48034Z" fill="var(--fill-0, white)"/>
<path id="Vector_4" d="M86.5841 4.48034L79.1765 4.48034L79.1765 9.55712L86.5841 9.55712L86.5841 4.48034Z" fill="var(--fill-0, white)"/>
<path id="Vector_5" d="M82.5947 6.74771L75.9685 6.74771L75.9685 12.7527L82.5947 12.7527L82.5947 6.74771Z" fill="var(--fill-0, white)"/>
<path id="Vector_6" d="M79.6662 12.7606L74.8956 12.7606L74.8956 16.0537L79.6662 16.0537L79.6662 12.7606Z" fill="var(--fill-0, white)"/>
<path id="Vector_7" d="M82.0164 16.0539L76.1263 16.0539L76.1263 21.4294L82.0164 21.4294L82.0164 16.0539Z" fill="var(--fill-0, white)"/>
<path id="Vector_8" d="M84.9687 19.2822L79.7097 19.2822L79.7097 23.6487L84.9687 23.6487L84.9687 19.2822Z" fill="var(--fill-0, white)"/>
<path id="Vector_9" d="M89.5894 22.1074L83.3764 22.1074L83.3764 27.1115L89.5894 27.1115L89.5894 22.1074Z" fill="var(--fill-0, white)"/>
<path id="Vector_10" d="M103.586 24.0281L87.6893 24.0281L87.6893 30.9774L103.586 30.9774L103.586 24.0281Z" fill="var(--fill-0, white)"/>
<path id="Vector_11" d="M107.717 21.4291L101.707 21.4291L101.707 27.5067L107.717 27.5067L107.717 21.4291Z" fill="var(--fill-0, white)"/>
<path id="Vector_12" d="M112.346 17.9512L106.336 17.9512L106.336 24.0288L112.346 24.0288L112.346 17.9512Z" fill="var(--fill-0, white)"/>
<path id="Vector_13" d="M117.184 15.2146L111.173 15.2146L111.173 21.2922L117.184 21.2922L117.184 15.2146Z" fill="var(--fill-0, white)"/>
<path id="Vector_14" d="M122.67 11.3646L114.631 11.3646L114.631 17.4422L122.67 17.4422L122.67 11.3646Z" fill="var(--fill-0, white)"/>
<path id="Vector_15" d="M126.686 7.61157L118.647 7.61157L118.647 13.6892L126.686 13.6892L126.686 7.61157Z" fill="var(--fill-0, white)"/>
<path id="Vector_16" d="M130.992 3.68047L122.397 3.68047L122.397 9.75808L130.992 9.75808L130.992 3.68047Z" fill="var(--fill-0, white)"/>
<path id="Vector_17" d="M147.529 6.36057L140.918 6.36057L140.918 10.0572L147.529 10.0572L147.529 6.36057Z" fill="var(--fill-0, white)"/>
<path id="Vector_18" d="M150.51 9.10466L144.222 9.10466L144.222 12.8013L150.51 12.8013L150.51 9.10466Z" fill="var(--fill-0, white)"/>
<path id="Vector_19" d="M152.299 12.51L146.732 12.51L146.732 23.5837L152.299 23.5837L152.299 12.51Z" fill="var(--fill-0, white)"/>
<path id="Vector_20" d="M149.52 22.4625L143.209 22.4625L143.209 27.4989L149.52 27.4989L149.52 22.4625Z" fill="var(--fill-0, white)"/>
<path id="Vector_21" d="M146.002 26.5312L139.691 26.5312L139.691 31.5676L146.002 31.5676L146.002 26.5312Z" fill="var(--fill-0, white)"/>
<path id="Vector_22" d="M142.848 30.0335L131.571 30.0335L131.571 34.0772L142.848 34.0772L142.848 30.0335Z" fill="var(--fill-0, white)"/>
<path id="Vector_23" d="M135.326 26.5312L127.708 26.5312L127.708 30.5748L135.326 30.5748L135.326 26.5312Z" fill="var(--fill-0, white)"/>
<path id="Vector_24" d="M132.111 22.3175L127.708 22.3175L127.708 26.6678L132.111 26.6678L132.111 22.3175Z" fill="var(--fill-0, white)"/>
<path id="Vector_25" d="M134.569 18.798L130.392 18.798L130.392 22.5995L134.569 22.5995L134.569 18.798Z" fill="var(--fill-0, white)"/>
<path id="Vector_26" d="M144.162 2.57452L129.76 2.57452L129.76 7.20739L144.162 7.20739L144.162 2.57452Z" fill="var(--fill-0, white)"/>
<path id="Vector_27" d="M224.639 7.0218L221.251 7.0218L221.251 15.3513L224.639 15.3513L224.639 7.0218Z" fill="var(--fill-0, white)"/>
<path id="Vector_28" d="M222.092 6.23899L217.697 6.23899L217.697 11.8727L222.092 11.8727L222.092 6.23899Z" fill="var(--fill-0, white)"/>
<path id="Vector_29" d="M225.487 3.60048L222.091 3.60048L222.091 8.6369L225.487 8.6369L225.487 3.60048Z" fill="var(--fill-0, white)"/>
<path id="Vector_30" d="M231.062 3.59195L223.654 3.59195L223.654 8.66874L231.062 8.66874L231.062 3.59195Z" fill="var(--fill-0, white)"/>
<path id="Vector_31" d="M234.269 5.86892L227.643 5.86892L227.643 11.8739L234.269 11.8739L234.269 5.86892Z" fill="var(--fill-0, white)"/>
<path id="Vector_32" d="M235.336 11.8733L230.565 11.8733L230.565 15.1663L235.336 15.1663L235.336 11.8733Z" fill="var(--fill-0, white)"/>
<path id="Vector_33" d="M234.113 15.1655L228.223 15.1655L228.223 20.541L234.113 20.541L234.113 15.1655Z" fill="var(--fill-0, white)"/>
<path id="Vector_34" d="M230.53 18.3949L225.271 18.3949L225.271 22.7614L230.53 22.7614L230.53 18.3949Z" fill="var(--fill-0, white)"/>
<path id="Vector_35" d="M226.871 21.22L220.658 21.22L220.658 26.2242L226.871 26.2242L226.871 21.22Z" fill="var(--fill-0, white)"/>
<path id="Vector_36" d="M222.552 23.1482L206.655 23.1482L206.655 30.0976L222.552 30.0976L222.552 23.1482Z" fill="var(--fill-0, white)"/>
<path id="Vector_37" d="M208.531 20.5417L202.521 20.5417L202.521 26.6193L208.531 26.6193L208.531 20.5417Z" fill="var(--fill-0, white)"/>
<path id="Vector_38" d="M203.905 17.0714L197.894 17.0714L197.894 23.149L203.905 23.149L203.905 17.0714Z" fill="var(--fill-0, white)"/>
<path id="Vector_39" d="M199.065 14.3262L193.055 14.3262L193.055 20.4038L199.065 20.4038L199.065 14.3262Z" fill="var(--fill-0, white)"/>
<path id="Vector_40" d="M195.609 10.4847L187.571 10.4847L187.571 16.5623L195.609 16.5623L195.609 10.4847Z" fill="var(--fill-0, white)"/>
<path id="Vector_41" d="M191.591 6.73171L183.552 6.73171L183.552 12.8093L191.591 12.8093L191.591 6.73171Z" fill="var(--fill-0, white)"/>
<path id="Vector_42" d="M187.849 2.79315L179.254 2.79315L179.254 8.87076L187.849 8.87076L187.849 2.79315Z" fill="var(--fill-0, white)"/>
<path id="Vector_43" d="M169.322 5.48071L162.711 5.48071L162.711 9.17731L169.322 9.17731L169.322 5.48071Z" fill="var(--fill-0, white)"/>
<path id="Vector_44" d="M166.017 8.2248L159.729 8.2248L159.729 11.9214L166.017 11.9214L166.017 8.2248Z" fill="var(--fill-0, white)"/>
<path id="Vector_45" d="M163.508 11.6227L157.941 11.6227L157.941 22.6963L163.508 22.6963L163.508 11.6227Z" fill="var(--fill-0, white)"/>
<path id="Vector_46" d="M167.031 21.5752L160.721 21.5752L160.721 26.6116L167.031 26.6116L167.031 21.5752Z" fill="var(--fill-0, white)"/>
<path id="Vector_47" d="M170.546 25.6428L164.236 25.6428L164.236 30.6792L170.546 30.6792L170.546 25.6428Z" fill="var(--fill-0, white)"/>
<path id="Vector_48" d="M178.669 29.1537L167.393 29.1537L167.393 33.1974L178.669 33.1974L178.669 29.1537Z" fill="var(--fill-0, white)"/>
<path id="Vector_49" d="M182.529 25.6428L174.911 25.6428L174.911 29.6864L182.529 29.6864L182.529 25.6428Z" fill="var(--fill-0, white)"/>
<path id="Vector_50" d="M182.53 21.4376L178.128 21.4376L178.128 25.788L182.53 25.788L182.53 21.4376Z" fill="var(--fill-0, white)"/>
<path id="Vector_51" d="M179.848 17.9096L175.671 17.9096L175.671 21.7112L179.848 21.7112L179.848 17.9096Z" fill="var(--fill-0, white)"/>
<path id="Vector_52" d="M180.479 1.68719L166.077 1.68719L166.077 6.32007L180.479 6.32007L180.479 1.68719Z" fill="var(--fill-0, white)"/>
<path id="Vector_53" d="M18.1069 6.22299L2.69823 6.22299L2.69823 10.5088L18.1069 10.5088L18.1069 6.22299Z" fill="var(--fill-0, white)"/>
<path id="Vector_54" d="M20.9824 3.60048L15.3554 3.60048L15.3554 7.88629L20.9824 7.88629L20.9824 3.60048Z" fill="var(--fill-0, white)"/>
<path id="Vector_55" d="M27.3695 9.39474L17.8808 9.39474L17.8808 13.6806L27.3695 13.6806L27.3695 9.39474Z" fill="var(--fill-0, white)"/>
<path id="Vector_56" d="M27.3619 12.3489L21.2766 12.3489L21.2766 16.6347L27.3619 16.6347L27.3619 12.3489Z" fill="var(--fill-0, white)"/>
<path id="Vector_57" d="M30.7641 14.6419L24.3182 14.6419L24.3182 20.6953L30.7641 20.6953L30.7641 14.6419Z" fill="var(--fill-0, white)"/>
<path id="Vector_58" d="M33.8216 18.3384L27.7438 18.3384L27.7438 24.0528L33.8216 24.0528L33.8216 18.3384Z" fill="var(--fill-0, white)"/>
<path id="Vector_59" d="M42.3191 20.6953L33.2511 20.6953L33.2511 27.3702L42.3191 27.3702L42.3191 20.6953Z" fill="var(--fill-0, white)"/>
<path id="Vector_60" d="M46.7154 20.7113L42.1777 20.7113L42.1777 23.7945L46.7154 23.7945L46.7154 20.7113Z" fill="var(--fill-0, white)"/>
<path id="Vector_61" d="M51.3413 15.093L43.8436 15.093L43.8436 20.7025L51.3413 20.7025L51.3413 15.093Z" fill="var(--fill-0, white)"/>
<path id="Vector_62" d="M55.6179 11.8413L48.1202 11.8413L48.1202 17.4508L55.6179 17.4508L55.6179 11.8413Z" fill="var(--fill-0, white)"/>
<path id="Vector_63" d="M69.6875 8.42637L53.1519 8.42637L53.1519 13.3337L69.6875 13.3337L69.6875 8.42637Z" fill="var(--fill-0, white)"/>
<path id="Vector_64" d="M40.9229 1.31605L33.906 1.31605L33.906 6.22334L40.9229 6.22334L40.9229 1.31605Z" fill="var(--fill-0, white)"/>
<path id="Vector_65" d="M37.8045 4.16466L30.7875 4.16466L30.7875 9.39479L37.8045 9.39479L37.8045 4.16466Z" fill="var(--fill-0, white)"/>
<path id="Vector_66" d="M37.3982 9.22624L33.2511 9.22624L33.2511 13.6815L37.3982 13.6815L37.3982 9.22624Z" fill="var(--fill-0, white)"/>
<path id="Vector_67" d="M40.2615 11.4531L35.6486 11.4531L35.6486 16.4088L40.2615 16.4088L40.2615 11.4531Z" fill="var(--fill-0, white)"/>
<path id="Vector_68" d="M67.3131 20.6143L61.0098 20.6143L61.0098 24.6176L67.3131 24.6176L67.3131 20.6143Z" fill="var(--fill-0, white)"/>
<path id="Vector_69" d="M63.8804 22.9307L57.179 22.9307L57.179 29.4038L63.8804 29.4038L63.8804 22.9307Z" fill="var(--fill-0, white)"/>
<path id="Vector_70" d="M67.5171 26.9343L60.8157 26.9343L60.8157 33.4074L67.5171 33.4074L67.5171 26.9343Z" fill="var(--fill-0, white)"/>
<path id="Vector_71" d="M24.8444 5.74734L18.1731 5.74734L18.1731 10.0332L24.8444 10.0332L24.8444 5.74734Z" fill="var(--fill-0, white)"/>
<path id="Vector_72" d="M8.75988 9.39474L3.51574e-08 9.39474L2.21956e-08 13.6806L8.75988 13.6806L8.75988 9.39474Z" fill="var(--fill-0, white)"/>
<path id="Vector_73" d="M4.37993 12.527L3.51574e-08 12.527L0 24.1496L4.37993 24.1496L4.37993 12.527Z" fill="var(--fill-0, white)"/>
<path id="Vector_74" d="M7.72196 23.0917L1.87703 23.0917L1.87703 27.4179L7.72196 27.4179L7.72196 23.0917Z" fill="var(--fill-0, white)"/>
<path id="Vector_75" d="M11.8333 26.8373L4.80136 26.8373L4.80136 30.8648L11.8333 30.8648L11.8333 26.8373Z" fill="var(--fill-0, white)"/>
<path id="Vector_76" d="M14.0796 20.3647L11.0745 20.3647L11.0745 27.7418L14.0796 27.7418L14.0796 20.3647Z" fill="var(--fill-0, white)"/>
<path id="Vector_77" d="M305.267 4.908L289.858 4.908L289.858 9.19381L305.267 9.19381L305.267 4.908Z" fill="var(--fill-0, white)"/>
<path id="Vector_78" d="M292.608 2.29296L286.981 2.29296L286.981 6.57877L292.608 6.57877L292.608 2.29296Z" fill="var(--fill-0, white)"/>
<path id="Vector_79" d="M290.083 8.07976L280.595 8.07976L280.595 12.3656L290.083 12.3656L290.083 8.07976Z" fill="var(--fill-0, white)"/>
<path id="Vector_80" d="M286.68 11.0339L280.595 11.0339L280.595 15.3198L286.68 15.3198L286.68 11.0339Z" fill="var(--fill-0, white)"/>
<path id="Vector_81" d="M283.643 13.3258L277.197 13.3258L277.197 19.3792L283.643 19.3792L283.643 13.3258Z" fill="var(--fill-0, white)"/>
<path id="Vector_82" d="M280.212 17.0223L274.134 17.0223L274.134 22.7367L280.212 22.7367L280.212 17.0223Z" fill="var(--fill-0, white)"/>
<path id="Vector_83" d="M274.712 19.3878L265.644 19.3878L265.644 26.0627L274.712 26.0627L274.712 19.3878Z" fill="var(--fill-0, white)"/>
<path id="Vector_84" d="M265.795 19.4038L261.257 19.4038L261.257 22.487L265.795 22.487L265.795 19.4038Z" fill="var(--fill-0, white)"/>
<path id="Vector_85" d="M264.126 13.778L256.628 13.778L256.628 19.3875L264.126 19.3875L264.126 13.778Z" fill="var(--fill-0, white)"/>
<path id="Vector_86" d="M259.843 10.5252L252.345 10.5252L252.345 16.1347L259.843 16.1347L259.843 10.5252Z" fill="var(--fill-0, white)"/>
<path id="Vector_87" d="M254.818 7.11138L238.282 7.11138L238.282 12.0187L254.818 12.0187L254.818 7.11138Z" fill="var(--fill-0, white)"/>
<path id="Vector_88" d="M274.05 0L267.033 2.28029e-08L267.033 4.90729L274.05 4.90729L274.05 0Z" fill="var(--fill-0, white)"/>
<path id="Vector_89" d="M277.177 2.84967L270.16 2.84967L270.16 8.07981L277.177 8.07981L277.177 2.84967Z" fill="var(--fill-0, white)"/>
<path id="Vector_90" d="M274.712 7.91018L270.565 7.91018L270.565 12.3655L274.712 12.3655L274.712 7.91018Z" fill="var(--fill-0, white)"/>
<path id="Vector_91" d="M272.316 10.1381L267.703 10.1381L267.703 15.0938L272.316 15.0938L272.316 10.1381Z" fill="var(--fill-0, white)"/>
<path id="Vector_92" d="M246.945 19.2982L240.642 19.2982L240.642 23.3015L246.945 23.3015L246.945 19.2982Z" fill="var(--fill-0, white)"/>
<path id="Vector_93" d="M250.783 21.6146L244.082 21.6146L244.082 28.0877L250.783 28.0877L250.783 21.6146Z" fill="var(--fill-0, white)"/>
<path id="Vector_94" d="M247.147 25.6268L240.445 25.6268L240.445 32.0999L247.147 32.0999L247.147 25.6268Z" fill="var(--fill-0, white)"/>
<path id="Vector_95" d="M289.789 4.43128L283.118 4.43128L283.118 8.71709L289.789 8.71709L289.789 4.43128Z" fill="var(--fill-0, white)"/>
<path id="Vector_96" d="M307.963 8.07976L299.203 8.07976L299.203 12.3656L307.963 12.3656L307.963 8.07976Z" fill="var(--fill-0, white)"/>
<path id="Vector_97" d="M307.964 11.211L303.584 11.211L303.584 22.8335L307.964 22.8335L307.964 11.211Z" fill="var(--fill-0, white)"/>
<path id="Vector_98" d="M306.084 21.7767L300.239 21.7767L300.239 26.1029L306.084 26.1029L306.084 21.7767Z" fill="var(--fill-0, white)"/>
<path id="Vector_99" d="M303.163 25.5212L296.131 25.5212L296.131 29.5487L303.163 29.5487L303.163 25.5212Z" fill="var(--fill-0, white)"/>
<path id="Vector_100" d="M296.897 19.0486L293.892 19.0486L293.892 26.4257L296.897 26.4257L296.897 19.0486Z" fill="var(--fill-0, white)"/>
</g>
</svg>
