<svg preserveAspectRatio="none" width="100%" height="100%" overflow="visible" style="display: block;" viewBox="0 0 50.6027 45.706" fill="none" xmlns="http://www.w3.org/2000/svg">
<g id="Capa_1" clip-path="url(#clip0_0_9)">
<path id="Vector" d="M26.2403 6.19938H11.0667V13.1H26.2403V6.19938Z" fill="var(--fill-0, #161616)"/>
<path id="Vector_2" d="M37.4251 4.2631H13.2625V10.8407H37.4251V4.2631Z" fill="var(--fill-0, #161616)"/>
<path id="Vector_3" d="M19.9244 2.06596H15.5112V5.43811H19.9244V2.06596Z" fill="var(--fill-0, #161616)"/>
<path id="Vector_4" d="M35.2131 -0.000250204H28.4174V6.96829H35.2131V-0.000250204Z" fill="var(--fill-0, #161616)"/>
<path id="Vector_5" d="M37.4227 2.02746H24.2839V10.8395H37.4227V2.02746Z" fill="var(--fill-0, #161616)"/>
<path id="Vector_6" d="M39.7601 8.45975H37.1142V26.3862H39.7601V8.45975Z" fill="var(--fill-0, #161616)"/>
<path id="Vector_7" d="M48.473 13.1028H35.1634V19.5014H48.473V13.1028Z" fill="var(--fill-0, #161616)"/>
<path id="Vector_8" d="M50.6052 15.1283H48.4737V17.5458H50.6052V15.1283Z" fill="var(--fill-0, #161616)"/>
<path id="Vector_9" d="M37.9019 15.1672H21.9053V19.5721H37.9019V15.1672Z" fill="var(--fill-0, #161616)"/>
<path id="Vector_10" d="M22.2187 17.3124H4.20584V24.0691H22.2187V17.3124Z" fill="var(--fill-0, #161616)"/>
<path id="Vector_11" d="M28.8313 19.1934H21.6035V22.0924H28.8313V19.1934Z" fill="var(--fill-0, #161616)"/>
<path id="Vector_12" d="M6.12291 19.3419H-3.21247e-05L-3.21247e-05 21.9878H6.12291V19.3419Z" fill="var(--fill-0, #161616)"/>
<path id="Vector_13" d="M11.1064 12.9234H8.80618V18.4785H11.1064V12.9234Z" fill="var(--fill-0, #161616)"/>
<path id="Vector_14" d="M5.19505 21.9906H2.15004V24.0707H5.19505V21.9906Z" fill="var(--fill-0, #161616)"/>
<path id="Vector_15" d="M11.1721 23.3904H8.64353V26.2008H11.1721V23.3904Z" fill="var(--fill-0, #161616)"/>
<path id="Vector_16" d="M23.0827 30.4876H15.7188V32.7919H23.0827V30.4876Z" fill="var(--fill-0, #161616)"/>
<path id="Vector_17" d="M26.7269 34.5145H18.0713V36.8188H26.7269V34.5145Z" fill="var(--fill-0, #161616)"/>
<path id="Vector_18" d="M15.7185 22.6386V31.2943H18.0228V22.6386H15.7185Z" fill="var(--fill-0, #161616)"/>
<path id="Vector_19" d="M10.9068 25.9852V34.6409H13.2111V25.9852H10.9068Z" fill="var(--fill-0, #161616)"/>
<path id="Vector_20" d="M15.8077 34.5118H12.9828V39.3509H15.8077V34.5118Z" fill="var(--fill-0, #161616)"/>
<path id="Vector_21" d="M17.6011 38.7478H15.0931V43.3955H17.6011V38.7478Z" fill="var(--fill-0, #161616)"/>
<path id="Vector_22" d="M20.0477 41.1402H17.5788V45.7055H20.0477V41.1402Z" fill="var(--fill-0, #161616)"/>
<path id="Vector_23" d="M30.8346 43.5513H18.348V45.6993H30.8346V43.5513Z" fill="var(--fill-0, #161616)"/>
<path id="Vector_24" d="M33.187 41.1731H30.5309V43.8293H33.187V41.1731Z" fill="var(--fill-0, #161616)"/>
<path id="Vector_25" d="M35.3219 38.9137H32.6658V41.5698H35.3219V38.9137Z" fill="var(--fill-0, #161616)"/>
<path id="Vector_26" d="M37.6446 36.6697H34.9884V39.3259H37.6446V36.6697Z" fill="var(--fill-0, #161616)"/>
<path id="Vector_27" d="M41.9045 30.3115H39.2484V32.9677H41.9045V30.3115Z" fill="var(--fill-0, #161616)"/>
<path id="Vector_28" d="M44.0317 28.1784H41.3755V30.8346H44.0317V28.1784Z" fill="var(--fill-0, #161616)"/>
<path id="Vector_29" d="M46.2329 19.0609H43.8278V28.4716H46.2329V19.0609Z" fill="var(--fill-0, #161616)"/>
<path id="Vector_30" d="M41.9435 19.3899H39.5384V24.2063H41.9435V19.3899Z" fill="var(--fill-0, #161616)"/>
<path id="Vector_31" d="M43.9224 17.1658H41.5172V21.9823H43.9224V17.1658Z" fill="var(--fill-0, #161616)"/>
<path id="Vector_32" d="M39.7807 32.4054H37.1246V37.1149H39.7807V32.4054Z" fill="var(--fill-0, #161616)"/>
</g>
<defs>
<clipPath id="clip0_0_9">
<rect width="50.6027" height="45.706" fill="white"/>
</clipPath>
</defs>
</svg>
