<svg preserveAspectRatio="none" width="100%" height="100%" overflow="visible" style="display: block;" viewBox="0 0 89.2411 36.1198" fill="none" xmlns="http://www.w3.org/2000/svg">
<g id="obel">
<path id="Vector" d="M89.2411 7.40923e-06V35.6858H84.8527V7.40923e-06H89.2411Z" fill="var(--fill-0, #161616)"/>
<path id="Vector_2" d="M82.4355 21.4595C82.4355 22.2953 82.3873 23.1794 82.2908 24.1118H61.1687C61.3295 26.7159 62.2136 28.7574 63.821 30.2362C65.4606 31.6829 67.4378 32.4063 69.7526 32.4063C71.6494 32.4063 73.2247 31.9723 74.4785 31.1043C75.7645 30.2041 76.6647 29.0146 77.1791 27.5357H81.905C81.1978 30.0755 79.7832 32.1491 77.6613 33.7566C75.5395 35.3319 72.9032 36.1196 69.7526 36.1196C67.2449 36.1196 64.9945 35.5569 63.0012 34.4317C61.0401 33.3065 59.4969 31.7151 58.3717 29.6575C57.2465 27.5678 56.6839 25.1566 56.6839 22.4239C56.6839 19.6912 57.2304 17.2961 58.3235 15.2386C59.4166 13.181 60.9437 11.6057 62.9048 10.5126C64.898 9.38737 67.1806 8.82476 69.7526 8.82476C72.2602 8.82476 74.4785 9.3713 76.4075 10.4644C78.3365 11.5575 79.8153 13.0685 80.8441 14.9974C81.905 16.8942 82.4355 19.0483 82.4355 21.4595ZM77.9024 20.5432C77.9024 18.8714 77.5327 17.4408 76.7933 16.2513C76.0539 15.0296 75.0412 14.1133 73.7552 13.5025C72.5014 12.8595 71.1029 12.538 69.5597 12.538C67.3414 12.538 65.4446 13.2453 63.8693 14.6599C62.3261 16.0744 61.442 18.0355 61.2169 20.5432H77.9024Z" fill="var(--fill-0, #161616)"/>
<path id="Vector_3" d="M32.5229 14.1779C33.4231 12.6026 34.7412 11.3166 36.4772 10.3199C38.2133 9.32332 40.1905 8.825 42.4088 8.825C44.7878 8.825 46.9258 9.38762 48.8226 10.5128C50.7194 11.6381 52.2143 13.2295 53.3074 15.287C54.4005 17.3124 54.947 19.6754 54.947 22.376C54.947 25.0444 54.4005 27.4234 53.3074 29.5131C52.2143 31.6028 50.7033 33.2264 48.7744 34.3837C46.8775 35.5411 44.7557 36.1198 42.4088 36.1198C40.1262 36.1198 38.1169 35.6215 36.3808 34.6249C34.6769 33.6282 33.3909 32.3583 32.5229 30.8152V35.6858H28.1345V7.40923e-06H32.5229V14.1779ZM50.4622 22.376C50.4622 20.3827 50.0603 18.6466 49.2566 17.1678C48.4529 15.6889 47.3598 14.5637 45.9774 13.7921C44.6271 13.0205 43.1322 12.6347 41.4925 12.6347C39.8851 12.6347 38.3901 13.0366 37.0077 13.8403C35.6574 14.6119 34.5644 15.7532 33.7285 17.2642C32.9247 18.7431 32.5229 20.4631 32.5229 22.4242C32.5229 24.4174 32.9247 26.1696 33.7285 27.6806C34.5644 29.1595 35.6574 30.3008 37.0077 31.1045C38.3901 31.8761 39.8851 32.2619 41.4925 32.2619C43.1322 32.2619 44.6271 31.8761 45.9774 31.1045C47.3598 30.3008 48.4529 29.1595 49.2566 27.6806C50.0603 26.1696 50.4622 24.4014 50.4622 22.376Z" fill="var(--fill-0, #161616)"/>
<path id="Vector_4" d="M13.1652 36.1196C10.6897 36.1196 8.43921 35.5569 6.4138 34.4317C4.42054 33.3065 2.84522 31.7151 1.68784 29.6575C0.562614 27.5678 0 25.1566 0 22.4239C0 19.7234 0.578689 17.3443 1.73607 15.2868C2.92559 13.1971 4.53306 11.6057 6.55847 10.5126C8.58388 9.38737 10.8504 8.82476 13.3581 8.82476C15.8657 8.82476 18.1322 9.38737 20.1576 10.5126C22.1831 11.6057 23.7744 13.181 24.9318 15.2386C26.1213 17.2961 26.7161 19.6912 26.7161 22.4239C26.7161 25.1566 26.1053 27.5678 24.8836 29.6575C23.6941 31.7151 22.0705 33.3065 20.013 34.4317C17.9554 35.5569 15.6728 36.1196 13.1652 36.1196ZM13.1652 32.2616C14.7405 32.2616 16.2193 31.8919 17.6018 31.1525C18.9842 30.413 20.0933 29.3039 20.9292 27.825C21.7973 26.3462 22.2313 24.5458 22.2313 22.4239C22.2313 20.3021 21.8133 18.5017 20.9775 17.0228C20.1416 15.544 19.0485 14.4509 17.6982 13.7436C16.3479 13.0042 14.8852 12.6345 13.3098 12.6345C11.7024 12.6345 10.2235 13.0042 8.87322 13.7436C7.5551 14.4509 6.49417 15.544 5.69044 17.0228C4.8867 18.5017 4.48483 20.3021 4.48483 22.4239C4.48483 24.5779 4.87063 26.3944 5.64221 27.8732C6.44594 29.3521 7.50687 30.4613 8.825 31.2007C10.1431 31.908 11.5898 32.2616 13.1652 32.2616Z" fill="var(--fill-0, #161616)"/>
</g>
</svg>
