<svg preserveAspectRatio="none" width="100%" height="100%" overflow="visible" style="display: block;" viewBox="0 0 119.663 108.083" fill="none" xmlns="http://www.w3.org/2000/svg">
<g id="Capa_1" clip-path="url(#clip0_0_79)">
<path id="Vector" d="M62.052 14.6618L26.1702 14.6618V30.9801H62.052V14.6618Z" fill="var(--fill-0, white)"/>
<path id="Vector_2" d="M88.5018 10.0816H31.3633V25.6361H88.5018V10.0816Z" fill="var(--fill-0, white)"/>
<path id="Vector_3" d="M47.1168 4.88563H36.6807V12.8599H47.1168V4.88563Z" fill="var(--fill-0, white)"/>
<path id="Vector_4" d="M83.2697 -8.02756e-05H67.1995V16.4788H83.2697V-8.02756e-05Z" fill="var(--fill-0, white)"/>
<path id="Vector_5" d="M88.496 4.79506H57.426V25.6333H88.496V4.79506Z" fill="var(--fill-0, white)"/>
<path id="Vector_6" d="M94.0236 20.0058H87.7668V62.3975H94.0236V20.0058Z" fill="var(--fill-0, white)"/>
<path id="Vector_7" d="M114.628 30.9842H83.1538V46.1154H114.628V30.9842Z" fill="var(--fill-0, white)"/>
<path id="Vector_8" d="M119.668 35.7765H114.627V41.4939H119.668V35.7765Z" fill="var(--fill-0, white)"/>
<path id="Vector_9" d="M89.6305 35.8689H51.8025V46.2856H89.6305V35.8689Z" fill="var(--fill-0, white)"/>
<path id="Vector_10" d="M52.5416 40.9403H9.94561V56.9181H52.5416V40.9403Z" fill="var(--fill-0, white)"/>
<path id="Vector_11" d="M68.1786 45.388H51.0867V52.2432H68.1786V45.388Z" fill="var(--fill-0, white)"/>
<path id="Vector_12" d="M14.4802 45.74H0.000927912V51.9969H14.4802V45.74Z" fill="var(--fill-0, white)"/>
<path id="Vector_13" d="M26.2649 30.5625H20.8255V43.6989H26.2649V30.5625Z" fill="var(--fill-0, white)"/>
<path id="Vector_14" d="M12.2847 52.0036H5.08319V56.923H12.2847V52.0036Z" fill="var(--fill-0, white)"/>
<path id="Vector_15" d="M26.4204 55.3136H20.4403V61.9604H26.4204V55.3136Z" fill="var(--fill-0, white)"/>
<path id="Vector_16" d="M54.5852 72.0973H37.1715V77.5465H54.5852V72.0973Z" fill="var(--fill-0, white)"/>
<path id="Vector_17" d="M63.2012 81.6196H42.7327V87.0687H63.2012V81.6196Z" fill="var(--fill-0, white)"/>
<path id="Vector_18" d="M37.1712 53.5365V74.005H42.6204V53.5365H37.1712Z" fill="var(--fill-0, white)"/>
<path id="Vector_19" d="M25.794 61.4505V81.9189H31.2432V61.4505H25.794Z" fill="var(--fill-0, white)"/>
<path id="Vector_20" d="M37.3813 81.6135H30.7012V93.0567H37.3813V81.6135Z" fill="var(--fill-0, white)"/>
<path id="Vector_21" d="M41.6239 91.6292H35.693V102.62H41.6239V91.6292Z" fill="var(--fill-0, white)"/>
<path id="Vector_22" d="M47.4085 97.288H41.5701V108.084H47.4085V97.288Z" fill="var(--fill-0, white)"/>
<path id="Vector_23" d="M72.9175 102.989H43.3898V108.068H72.9175V102.989Z" fill="var(--fill-0, white)"/>
<path id="Vector_24" d="M78.4804 97.3653H72.1986V103.647H78.4804V97.3653Z" fill="var(--fill-0, white)"/>
<path id="Vector_25" d="M83.5285 92.0228H77.2467V98.3046H83.5285V92.0228Z" fill="var(--fill-0, white)"/>
<path id="Vector_26" d="M89.021 86.716H82.7391V92.9979H89.021V86.716Z" fill="var(--fill-0, white)"/>
<path id="Vector_27" d="M99.0937 71.6807H92.8119V77.9626H99.0937V71.6807Z" fill="var(--fill-0, white)"/>
<path id="Vector_28" d="M104.125 66.6347H97.8434V72.9166H104.125V66.6347Z" fill="var(--fill-0, white)"/>
<path id="Vector_29" d="M109.33 45.076H103.643V67.3301H109.33V45.076Z" fill="var(--fill-0, white)"/>
<path id="Vector_30" d="M99.1866 45.8534H93.499V57.2431H99.1866V45.8534Z" fill="var(--fill-0, white)"/>
<path id="Vector_31" d="M103.865 40.595H98.1778V51.9847H103.865V40.595Z" fill="var(--fill-0, white)"/>
<path id="Vector_32" d="M94.0709 76.6317H87.7897V87.7685H94.0709V76.6317Z" fill="var(--fill-0, white)"/>
</g>
<defs>
<clipPath id="clip0_0_79">
<rect width="119.663" height="108.083" fill="white"/>
</clipPath>
</defs>
</svg>
