<svg width="1101" height="487" viewBox="0 0 1101 487" fill="none" xmlns="http://www.w3.org/2000/svg">
<path d="M781.803 370.204H732.872V400.992H784.583V486.704H689.253V433.583H637.542V347.871H692.137V317.195H781.803V370.204ZM294.86 109.648H349.783V161.271H349.788V218.875H311.63V265.586H252.209V215.249H287.161V163.191H241.415V116.711H179.326V163.191H129.312V217.059H79.1924V344.877H114.881V381.217H161.904V419.042H303.197V385.279H364.323V333.127H421.497V283.432H499.513V232.553H568.345V196.221H634.178V150.268H692.949V104.198H919.091V155.505H980.55V201.351H1032.59V230.737H1083.57V301.912H1100.99V345.516H1033.12V301.914H999.781V259.168H957.779V221.766H892.166V196.215H719.676V230.742H653.843V276.695H585.011V313.027H535.85V363.906H478.677V413.602H425.459V465.754H320.612V480.387H115.738V430.164H67.8574V393.824H25.4287V348.832H0V202.203H39.5391V150.37H89.5537V96.5029H134.445V63.168H294.86V109.648ZM948.805 413.164H991.55V345.519H1085.81V425.031H1040.18V480.387H934.807V480.289H912.574V420.117H850.055V345.521H900.605V309.825H948.805V413.164ZM516.838 53.1123H568.55V138.824H513.954V169.496H424.288V116.487H473.22V85.7109H421.508V-0.000976562H516.838V53.1123Z" fill="#090E19"/>
</svg>
