<svg viewBox="0 0 1592.32 642" fill="none" xmlns="http://www.w3.org/2000/svg">
<g id="Frame">
<path id="Vector" d="M1590.37 0V634.195H1513.29V0H1590.37Z" fill="currentColor"/>
<path id="Vector_2" d="M1469.87 381.321C1469.87 396.175 1469.01 411.886 1467.29 428.454H1090.67C1093.53 474.727 1109.3 511.003 1137.96 537.283C1167.2 562.989 1202.45 575.845 1243.72 575.845C1277.54 575.845 1305.63 568.133 1327.99 552.707C1350.92 536.711 1366.97 515.574 1376.14 489.294H1460.41C1447.8 534.425 1422.57 571.273 1384.74 599.837C1346.91 627.831 1299.9 641.828 1243.72 641.828C1199.01 641.828 1158.88 631.831 1123.34 611.836C1088.37 591.84 1060.86 563.561 1040.8 526.998C1020.73 489.866 1010.7 447.02 1010.7 398.461C1010.7 349.902 1020.45 307.341 1039.94 270.778C1059.43 234.217 1086.66 206.224 1121.62 186.801C1157.16 166.806 1197.86 156.808 1243.72 156.808C1288.44 156.808 1327.99 166.52 1362.38 185.944C1396.78 205.367 1423.15 232.218 1441.49 266.494C1460.41 300.199 1469.87 338.476 1469.87 381.321ZM1389.04 365.041C1389.04 335.333 1382.45 309.912 1369.26 288.775C1356.08 267.066 1338.02 250.784 1315.09 239.93C1292.73 228.504 1267.8 222.791 1240.28 222.791C1200.73 222.791 1166.91 235.359 1138.82 260.496C1111.3 285.632 1095.54 320.481 1091.53 365.041H1389.04Z" fill="currentColor"/>
<path id="Vector_3" d="M579.896 251.936C595.946 223.943 619.449 201.092 650.405 183.382C681.36 165.672 716.614 156.817 756.168 156.817C798.586 156.817 836.708 166.814 870.529 186.809C904.349 206.804 931.005 235.083 950.495 271.644C969.985 307.635 979.731 349.626 979.731 397.613C979.731 445.03 969.985 487.304 950.495 524.436C931.005 561.571 904.063 590.42 869.669 610.987C835.848 631.552 798.015 641.837 756.168 641.837C715.466 641.837 679.64 632.981 648.685 615.272C618.304 597.562 595.375 574.997 579.896 547.574V634.123H501.649V0H579.896V251.936ZM899.764 397.613C899.764 362.194 892.598 331.345 878.267 305.064C863.936 278.786 844.446 258.791 819.798 245.08C795.721 231.369 769.065 224.514 739.829 224.514C711.167 224.514 684.513 231.655 659.862 245.937C635.788 259.648 616.296 279.928 601.393 306.778C587.063 333.058 579.896 363.621 579.896 398.47C579.896 433.889 587.063 465.023 601.393 491.873C616.296 518.154 635.788 538.434 659.862 552.715C684.513 566.428 711.167 573.283 739.829 573.283C769.065 573.283 795.721 566.428 819.798 552.715C844.446 538.434 863.936 518.154 878.267 491.873C892.598 465.023 899.764 433.604 899.764 397.613Z" fill="currentColor"/>
<path id="Vector_4" d="M234.742 641.828C190.602 641.828 150.475 631.831 114.361 611.836C78.8204 591.84 50.7318 563.561 30.095 526.998C10.0317 489.866 0 447.02 0 398.461C0 350.474 10.3183 308.198 30.9548 271.635C52.1649 234.503 80.8268 206.224 116.941 186.801C153.055 166.806 193.468 156.808 238.181 156.808C282.895 156.808 323.308 166.806 359.422 186.801C395.536 206.224 423.912 234.217 444.547 270.778C465.756 307.341 476.362 349.902 476.362 398.461C476.362 447.02 465.471 489.866 443.687 526.998C422.478 563.561 393.528 591.84 356.842 611.836C320.154 631.831 279.455 641.828 234.742 641.828ZM234.742 573.274C262.831 573.274 289.199 566.704 313.85 553.564C338.498 540.423 358.274 520.716 373.179 494.435C388.658 468.157 396.396 436.166 396.396 398.461C396.396 360.757 388.943 328.765 374.038 302.485C359.134 276.207 339.644 256.783 315.57 244.214C291.493 231.075 265.41 224.505 237.321 224.505C208.659 224.505 182.29 231.075 158.214 244.214C134.711 256.783 115.794 276.207 101.464 302.485C87.1324 328.765 79.967 360.757 79.967 398.461C79.967 436.738 86.8459 469.014 100.603 495.294C114.935 521.572 133.851 541.28 157.354 554.421C180.857 566.989 206.653 573.274 234.742 573.274Z" fill="currentColor"/>
</g>
</svg>
