<svg preserveAspectRatio="none" width="100%" height="100%" overflow="visible" style="display: block;" viewBox="0 0 115.05 111.066" fill="none" xmlns="http://www.w3.org/2000/svg">
<g id="Group 1000010908">
<path id="Union" d="M73.5801 4.61426L78.6348 3.72852L79.5352 8.81445L79.542 8.81348L81.2334 18.3623L86.5752 17.4268L88.4463 27.9902L108.381 24.4971L110.96 39.0566L105.835 39.9541L109.451 60.3662L104.414 61.249L105.367 66.624L100.501 67.4756L101.362 72.333L96.501 73.1846L98.1729 82.6182L93.2861 83.4746L94.1787 88.5059L88.8643 89.4365L89.7695 94.543L84.8848 95.3984L85.7959 100.539L80.4141 101.482L81.1689 105.737L56.4893 110.062L56.4922 110.076L50.8438 111.066L49.9121 105.81L44.2256 106.807L42.5957 97.6045L37.7666 98.4512L35.8672 87.7334L31.1211 88.5654L27.7188 69.3623L22.5391 70.2705L21.6787 65.417L13.79 66.7998L13.791 66.8057L6.82324 68.0264L5.98438 63.293L10.6885 62.4688L10.6875 62.4609L1.06641 64.1475L0 58.1279L9.62109 56.4414L8.80371 51.8232L19.3271 49.9785L17.5576 39.9941L22.7295 39.0869L20.0195 23.7881L25.043 22.9072L24.2627 18.501L29.4072 17.5986L28.5225 12.6006L38.6191 10.8311L39.5039 15.8291L49.4766 14.0811L48.5762 8.99609L58.0322 7.33789L57.2158 2.72461L72.7627 0L73.5801 4.61426ZM66.0518 47.0928L67.0684 52.8262L51.9395 55.4766L52.7373 59.9756L43.1387 61.6562L45.7256 76.2637L57.3018 74.2354L58.2305 79.4785L41.3838 82.4307L40.7793 79.0225L37.8662 62.5801L27.4639 64.4033L28.2363 68.7646L32.9033 67.9473L36.3398 87.3477L42.2783 86.3076L43.9844 95.9443L48.0898 95.2256L49.0537 100.669L54.6523 99.6895L55.623 105.174L79.6064 100.971L78.6475 95.5605L83.5312 94.7041L82.6211 89.5645L87.9336 88.6328L87.0303 83.5264L91.916 82.6699L90.1973 72.9678L95.0566 72.1152L94.2139 67.3535L99.0781 66.501L98.2188 61.6445L103.83 60.6602L101.332 46.5635L97.0195 47.3193L97.917 52.3809L92.9219 53.2559L93.8008 58.2158L87.748 59.2764L85 43.7725L66.0518 47.0928ZM68.1895 87.1787L48.3867 90.6484L47.458 85.4053L67.2607 81.9355L68.1895 87.1787ZM56.6035 28.2637L57.5156 33.4062L22.8906 39.4727L24.5889 49.0566L49.2969 44.7266L48.4326 39.8477L78.7637 34.5322L77.9316 29.833L82.3916 29.0508L81.4805 23.9043L56.6035 28.2637ZM115.05 33.7539L110.173 34.6084L109.198 29.1074L114.075 28.2529L115.05 33.7539Z" fill="var(--fill-0, white)" fill-opacity="0.26"/>
</g>
</svg>
