<svg preserveAspectRatio="xMidYMid meet" width="89" height="36" overflow="visible" style="display: block;" viewBox="0 0 89.1377 36.0808" fill="none" xmlns="http://www.w3.org/2000/svg">
<g id="Group 23">
<path id="Vector" d="M89.1377 0V35.6448H84.7544V0H89.1377Z" fill="var(--fill-0, #FFFBFA)"/>
<path id="Vector_2" d="M82.3367 21.4354C82.3367 22.2703 82.2885 23.1534 82.1922 24.0846H61.0943C61.2548 26.6858 62.1379 28.7249 63.7436 30.2021C65.3813 31.6471 67.3562 32.3697 69.6683 32.3697C71.5629 32.3697 73.1365 31.9361 74.3888 31.0691C75.6733 30.17 76.5725 28.9818 77.0863 27.5046H81.8068C81.1003 30.0415 79.6874 32.1128 77.568 33.7184C75.4486 35.2919 72.8153 36.0787 69.6683 36.0787C67.1635 36.0787 64.9157 35.5167 62.9247 34.3928C60.9658 33.2688 59.4244 31.6793 58.3005 29.6241C57.1766 27.5367 56.6146 25.1283 56.6146 22.3987C56.6146 19.6692 57.1605 17.2768 58.2523 15.2216C59.3441 13.1664 60.8695 11.5929 62.8284 10.5011C64.8193 9.37713 67.0993 8.81517 69.6683 8.81517C72.1731 8.81517 74.3888 9.36108 76.3156 10.4529C78.2423 11.5447 79.7195 13.054 80.7471 14.9808C81.8068 16.8754 82.3367 19.0269 82.3367 21.4354ZM77.8088 20.5202C77.8088 18.8503 77.4395 17.4213 76.7009 16.2331C75.9624 15.0129 74.9508 14.0977 73.6663 13.4875C72.4139 12.8453 71.017 12.5242 69.4756 12.5242C67.2599 12.5242 65.3652 13.2306 63.7917 14.6436C62.2503 16.0565 61.3672 18.0154 61.1424 20.5202H77.8088Z" fill="var(--fill-0, #FFFBFA)"/>
<path id="Vector_3" d="M32.6896 14.1616C33.5887 12.5881 34.9053 11.3036 36.6394 10.3081C38.3735 9.31262 40.3484 8.81487 42.5641 8.81487C44.9405 8.81487 47.076 9.37684 48.9706 10.5008C50.8652 11.6247 52.3585 13.2143 53.4503 15.2695C54.5421 17.2926 55.088 19.6528 55.088 22.3503C55.088 25.0156 54.5421 27.3919 53.4503 29.4792C52.3585 31.5666 50.8492 33.1882 48.9224 34.3443C47.0278 35.5003 44.9084 36.0784 42.5641 36.0784C40.2842 36.0784 38.2771 35.5806 36.5431 34.5851C34.8411 33.5896 33.5566 32.3212 32.6896 30.7798V35.6448H28.3062V0H32.6896V14.1616ZM50.6083 22.3503C50.6083 20.3593 50.2069 18.6252 49.4041 17.1481C48.6013 15.6709 47.5095 14.5469 46.1286 13.7762C44.7799 13.0056 43.2867 12.6202 41.6489 12.6202C40.0433 12.6202 38.5501 13.0216 37.1693 13.8244C35.8205 14.5951 34.7287 15.7351 33.8938 17.2444C33.091 18.7216 32.6896 20.4396 32.6896 22.3984C32.6896 24.3894 33.091 26.1396 33.8938 27.6488C34.7287 29.126 35.8205 30.266 37.1693 31.0688C38.5501 31.8395 40.0433 32.2249 41.6489 32.2249C43.2867 32.2249 44.7799 31.8395 46.1286 31.0688C47.5095 30.266 48.6013 29.126 49.4041 27.6488C50.2069 26.1396 50.6083 24.3734 50.6083 22.3503Z" fill="var(--fill-0, #FFFBFA)"/>
<path id="Vector_4" d="M13.1501 36.0808C10.6774 36.0808 8.42952 35.5189 6.40644 34.3949C4.41547 33.271 2.84195 31.6814 1.6859 29.6262C0.561968 27.5389 0 25.1305 0 22.4009C0 19.7035 0.578025 17.3271 1.73407 15.2719C2.92224 13.1846 4.52786 11.5951 6.55094 10.5032C8.57403 9.3793 10.838 8.81733 13.3427 8.81733C15.8475 8.81733 18.1114 9.3793 20.1345 10.5032C22.1576 11.5951 23.7472 13.1686 24.9032 15.2238C26.0914 17.279 26.6855 19.6713 26.6855 22.4009C26.6855 25.1305 26.0753 27.5389 24.8551 29.6262C23.6669 31.6814 22.0452 33.271 19.99 34.3949C17.9348 35.5189 15.6548 36.0808 13.1501 36.0808ZM13.1501 32.2273C14.7236 32.2273 16.2007 31.858 17.5816 31.1194C18.9624 30.3809 20.0703 29.273 20.9052 27.7958C21.7723 26.3186 22.2058 24.5203 22.2058 22.4009C22.2058 20.2815 21.7883 18.4832 20.9534 17.006C20.1185 15.5288 19.0266 14.437 17.6779 13.7305C16.3292 12.992 14.8681 12.6227 13.2946 12.6227C11.6889 12.6227 10.2118 12.992 8.86304 13.7305C7.54643 14.437 6.48672 15.5288 5.68391 17.006C4.8811 18.4832 4.47969 20.2815 4.47969 22.4009C4.47969 24.5524 4.86504 26.3668 5.63574 27.844C6.43855 29.3211 7.49826 30.429 8.81487 31.1676C10.1315 31.8741 11.5765 32.2273 13.1501 32.2273Z" fill="var(--fill-0, #FFFBFA)"/>
</g>
</svg>
