<svg preserveAspectRatio="none" width="100%" height="100%" overflow="visible" style="display: block;" viewBox="0 0 99.8372 45.9742" fill="none" xmlns="http://www.w3.org/2000/svg">
<g id="Group 1641">
<path id="Vector" d="M25.9393 7.02974L3.86473 7.02974L3.86473 13.1696L25.9393 13.1696L25.9393 7.02974Z" fill="var(--fill-0, black)"/>
<path id="Vector_2" d="M30.0609 3.27244L21.9996 3.27244L21.9996 9.41232L30.0609 9.41232L30.0609 3.27244Z" fill="var(--fill-0, black)"/>
<path id="Vector_3" d="M39.2104 11.5744L25.6169 11.5744L25.6169 17.7143L39.2104 17.7143L39.2104 11.5744Z" fill="var(--fill-0, black)"/>
<path id="Vector_4" d="M39.1989 15.8067L30.481 15.8067L30.481 21.9465L39.1989 21.9465L39.1989 15.8067Z" fill="var(--fill-0, black)"/>
<path id="Vector_5" d="M44.075 19.0904L34.8405 19.0904L34.8405 27.7626L44.075 27.7626L44.075 19.0904Z" fill="var(--fill-0, black)"/>
<path id="Vector_6" d="M48.4556 24.3857L39.7485 24.3857L39.7485 32.5722L48.4556 32.5722L48.4556 24.3857Z" fill="var(--fill-0, black)"/>
<path id="Vector_7" d="M60.6284 27.7627L47.6377 27.7627L47.6377 37.3252L60.6284 37.3252L60.6284 27.7627Z" fill="var(--fill-0, black)"/>
<path id="Vector_8" d="M66.9242 27.7853L60.4235 27.7853L60.4235 32.2024L66.9242 32.2024L66.9242 27.7853Z" fill="var(--fill-0, black)"/>
<path id="Vector_9" d="M73.5538 19.7378L62.8125 19.7378L62.8125 27.774L73.5538 27.774L73.5538 19.7378Z" fill="var(--fill-0, black)"/>
<path id="Vector_10" d="M79.6774 15.0773L68.9361 15.0773L68.9361 23.1134L79.6774 23.1134L79.6774 15.0773Z" fill="var(--fill-0, black)"/>
<path id="Vector_11" d="M99.8372 10.1863L76.1482 10.1863L76.1482 17.2165L99.8372 17.2165L99.8372 10.1863Z" fill="var(--fill-0, black)"/>
<path id="Vector_12" d="M58.626 0L48.5735 3.26622e-08L48.5735 7.03022L58.626 7.03022L58.626 0Z" fill="var(--fill-0, black)"/>
<path id="Vector_13" d="M54.159 4.08242L44.1066 4.08242L44.1066 11.5752L54.159 11.5752L54.159 4.08242Z" fill="var(--fill-0, black)"/>
<path id="Vector_14" d="M53.5788 11.3327L47.6377 11.3327L47.6377 17.7154L53.5788 17.7154L53.5788 11.3327Z" fill="var(--fill-0, black)"/>
<path id="Vector_15" d="M57.6782 14.5231L51.0699 14.5231L51.0699 21.6227L57.6782 21.6227L57.6782 14.5231Z" fill="var(--fill-0, black)"/>
<path id="Vector_16" d="M96.436 27.6468L87.406 27.6468L87.406 33.382L96.436 33.382L96.436 27.6468Z" fill="var(--fill-0, black)"/>
<path id="Vector_17" d="M91.5174 30.9659L81.917 30.9659L81.917 40.2393L91.5174 40.2393L91.5174 30.9659Z" fill="var(--fill-0, black)"/>
<path id="Vector_18" d="M96.7265 36.7008L87.1261 36.7008L87.1261 45.9742L96.7265 45.9742L96.7265 36.7008Z" fill="var(--fill-0, black)"/>
<path id="Vector_19" d="M35.5941 6.34839L26.0367 6.34839L26.0367 12.4883L35.5941 12.4883L35.5941 6.34839Z" fill="var(--fill-0, black)"/>
<path id="Vector_20" d="M12.5495 11.5744L5.03496e-08 11.5744L3.17804e-08 17.7143L12.5495 17.7143L12.5495 11.5744Z" fill="var(--fill-0, black)"/>
<path id="Vector_21" d="M6.27472 16.0597L5.03496e-08 16.0597L0 32.7102L6.27472 32.7102L6.27472 16.0597Z" fill="var(--fill-0, black)"/>
<path id="Vector_22" d="M11.0649 31.1963L2.69146 31.1963L2.69146 37.394L11.0649 37.394L11.0649 31.1963Z" fill="var(--fill-0, black)"/>
<path id="Vector_23" d="M16.9525 36.5623L6.87848 36.5623L6.87848 42.3321L16.9525 42.3321L16.9525 36.5623Z" fill="var(--fill-0, black)"/>
<path id="Vector_24" d="M20.1698 27.2878L15.8646 27.2878L15.8646 37.8562L20.1698 37.8562L20.1698 27.2878Z" fill="var(--fill-0, black)"/>
</g>
</svg>
