<svg width="54" height="54" viewBox="0 0 54 54" fill="none" xmlns="http://www.w3.org/2000/svg">
  <rect width="54" height="54" rx="12" fill="#1E1E1E"/>
  <path d="M22.5 42C25.26 42 27.5 39.76 27.5 37V32H22.5C19.74 32 17.5 34.24 17.5 37C17.5 39.76 19.74 42 22.5 42Z" fill="#0ACF83"/>
  <path d="M17.5 27C17.5 24.24 19.74 22 22.5 22H27.5V32H22.5C19.74 32 17.5 29.76 17.5 27Z" fill="#A259FF"/>
  <path d="M17.5 17C17.5 14.24 19.74 12 22.5 12H27.5V22H22.5C19.74 22 17.5 19.76 17.5 17Z" fill="#F24E1E"/>
  <path d="M27.5 12H32.5C35.26 12 37.5 14.24 37.5 17C37.5 19.76 35.26 22 32.5 22H27.5V12Z" fill="#FF7262"/>
  <path d="M37.5 27C37.5 29.76 35.26 32 32.5 32C29.74 32 27.5 29.76 27.5 27C27.5 24.24 29.74 22 32.5 22C35.26 22 37.5 24.24 37.5 27Z" fill="#1ABCFE"/>
</svg>
