<svg width="54" height="54" viewBox="0 0 54 54" fill="none" xmlns="http://www.w3.org/2000/svg">
  <rect width="54" height="54" rx="9" fill="#330000"/>
  <path d="M26.15 32.24H17.74L16.05 37.52C16.01 37.73 15.84 37.86 15.63 37.82H11.41C11.15 37.82 11.11 37.69 11.15 37.39L18.42 16.52C18.5 16.31 18.55 16.06 18.63 15.76C18.72 15.3 18.76 14.79 18.76 14.28C18.72 14.15 18.84 14.07 18.93 14.03H24.76C24.93 14.03 25.01 14.11 25.05 14.2L33.29 37.39C33.38 37.65 33.29 37.78 33.08 37.78H28.35C28.18 37.82 28.05 37.69 27.97 37.52L26.15 32.24ZM19.05 27.63H24.76C24.63 27.17 24.46 26.58 24.25 26.03C24.04 25.44 23.83 24.76 23.66 24.08C23.45 23.37 23.24 22.69 23.03 22.01C22.82 21.3 22.6 20.66 22.43 20.03C22.27 19.39 22.1 18.8 21.93 18.25H21.89C21.67 19.22 21.42 20.2 21.12 21.17C20.79 22.27 20.45 23.37 20.07 24.51C19.73 25.65 19.39 26.7 19.05 27.63ZM38.32 18.04C37.56 18.08 36.84 17.79 36.34 17.24C35.83 16.69 35.53 15.93 35.58 15.17C35.53 14.41 35.83 13.69 36.38 13.18C36.93 12.68 37.65 12.38 38.37 12.38C39.25 12.38 39.93 12.63 40.44 13.18C40.94 13.73 41.2 14.45 41.2 15.17C41.24 15.93 40.94 16.69 40.39 17.24C39.84 17.79 39.08 18.08 38.32 18.04ZM35.79 37.61V20.24C35.79 20.03 35.87 19.94 36.08 19.94H40.56C40.77 19.94 40.86 20.07 40.86 20.24V37.61C40.86 37.86 40.77 37.99 40.56 37.99H36.13C35.91 37.94 35.79 37.82 35.79 37.61Z" fill="#FF9A00"/>
</svg>
