<svg width="54" height="54" viewBox="0 0 54 54" fill="none" xmlns="http://www.w3.org/2000/svg">
  <rect width="54" height="54" rx="12" fill="white" />
  <path d="M16.73 33.1C16.73 35.45 14.82 37.37 12.47 37.37C10.12 37.37 8.2 35.45 8.2 33.1C8.2 30.76 10.12 28.84 12.47 28.84H16.73V33.1ZM18.88 33.1C18.88 30.76 20.8 28.84 23.15 28.84C25.5 28.84 27.41 30.76 27.41 33.1V43.79C27.41 46.13 25.5 48.05 23.15 48.05C20.8 48.05 18.88 46.13 18.88 43.79V33.1Z" fill="#DE1C59"/>
  <path d="M23.15 15.73C20.8 15.73 18.88 13.82 18.88 11.47C18.88 9.12 20.8 7.2 23.15 7.2C25.5 7.2 27.41 9.12 27.41 11.47V15.73H23.15ZM23.15 17.88C25.5 17.88 27.41 19.8 27.41 22.15C27.41 24.5 25.5 26.41 23.15 26.41H12.47C10.12 26.41 8.2 24.5 8.2 22.15C8.2 19.8 10.12 17.88 12.47 17.88H23.15Z" fill="#35C5F0"/>
  <path d="M40.28 22.15C40.28 19.8 42.19 17.88 44.54 17.88C46.89 17.88 48.81 19.8 48.81 22.15C48.81 24.5 46.89 26.41 44.54 26.41H40.28V22.15ZM38.13 22.15C38.13 24.5 36.21 26.41 33.86 26.41C31.51 26.41 29.59 24.5 29.59 22.15V11.47C29.59 9.12 31.51 7.2 33.86 7.2C36.21 7.2 38.13 9.12 38.13 11.47V22.15Z" fill="#2EB57D"/>
  <path d="M33.86 39.52C36.21 39.52 38.13 41.44 38.13 43.79C38.13 46.13 36.21 48.05 33.86 48.05C31.51 48.05 29.59 46.13 29.59 43.79V39.52H33.86ZM33.86 37.37C31.51 37.37 29.59 35.45 29.59 33.1C29.59 30.76 31.51 28.84 33.86 28.84H44.54C46.89 28.84 48.81 30.76 48.81 33.1C48.81 35.45 46.89 37.37 44.54 37.37H33.86Z" fill="#EBB02E"/>
</svg>
